<svg width="214" height="42" viewBox="0 0 214 42" fill="none" xmlns="http://www.w3.org/2000/svg">
<path d="M50.039 12.7706C47.9249 10.6654 45.4152 8.99536 42.6531 7.85601C39.891 6.71667 36.9306 6.13027 33.9409 6.13027C30.9512 6.13027 27.9909 6.71667 25.2287 7.85601C22.4667 8.99536 19.9569 10.6654 17.8429 12.7706L33.9409 28.8017L50.039 12.7706Z" fill="#FFD200"/>
<path d="M33.9611 28.8248C36.0751 30.9301 38.5848 32.6 41.347 33.7394C44.109 34.8787 47.0694 35.4651 50.0591 35.4651C53.0487 35.4651 56.0095 34.8787 58.7715 33.7394C61.5335 32.6 64.0435 30.9301 66.1573 28.8248L50.0591 12.7937L33.9611 28.8248Z" fill="#06E07F"/>
<path d="M33.9214 28.8213C31.8073 30.9265 29.2976 32.5965 26.5355 33.7358C23.7734 34.8752 20.813 35.4616 17.8233 35.4616C14.8336 35.4616 11.8733 34.8752 9.11115 33.7358C6.34909 32.5965 3.83934 30.9265 1.72531 28.8213L17.8233 12.7901L33.9214 28.8213Z" fill="#E3073C"/>
<path d="M50.0787 12.7742C52.1925 10.6689 54.7025 8.99896 57.4645 7.85962C60.2265 6.72027 63.1873 6.13387 66.1766 6.13387C69.1667 6.13387 72.1267 6.72027 74.8887 7.85962C77.6507 8.99896 80.1607 10.6689 82.2745 12.7742L66.1766 28.8053L50.0787 12.7742Z" fill="#1F84EF"/>
<path d="M120.716 17.672C120.716 18.8107 120.455 19.856 119.932 20.808C119.409 21.7413 118.607 22.4973 117.524 23.076C116.441 23.6547 115.097 23.944 113.492 23.944H110.524V31H105.736V11.344H113.492C115.06 11.344 116.385 11.6147 117.468 12.156C118.551 12.6973 119.363 13.444 119.904 14.396C120.445 15.348 120.716 16.44 120.716 17.672ZM113.128 20.136C114.043 20.136 114.724 19.9213 115.172 19.492C115.62 19.0627 115.844 18.456 115.844 17.672C115.844 16.888 115.62 16.2813 115.172 15.852C114.724 15.4227 114.043 15.208 113.128 15.208H110.524V20.136H113.128ZM137.349 11.344V15.18H132.141V31H127.353V15.18H122.145V11.344H137.349ZM141.992 31.224C141.152 31.224 140.461 30.9813 139.92 30.496C139.397 29.992 139.136 29.376 139.136 28.648C139.136 27.9013 139.397 27.276 139.92 26.772C140.461 26.268 141.152 26.016 141.992 26.016C142.813 26.016 143.485 26.268 144.008 26.772C144.549 27.276 144.82 27.9013 144.82 28.648C144.82 29.376 144.549 29.992 144.008 30.496C143.485 30.9813 142.813 31.224 141.992 31.224ZM164.984 31L158.376 22.32V31H153.588V11.344H158.376V19.968L164.928 11.344H170.556L162.94 20.976L170.836 31H164.984ZM172.299 21.144C172.299 19.2027 172.719 17.476 173.559 15.964C174.399 14.4333 175.566 13.248 177.059 12.408C178.571 11.5493 180.279 11.12 182.183 11.12C184.516 11.12 186.514 11.736 188.175 12.968C189.836 14.2 190.947 15.88 191.507 18.008H186.243C185.851 17.1867 185.291 16.5613 184.563 16.132C183.854 15.7027 183.042 15.488 182.127 15.488C180.652 15.488 179.458 16.0013 178.543 17.028C177.628 18.0547 177.171 19.4267 177.171 21.144C177.171 22.8613 177.628 24.2333 178.543 25.26C179.458 26.2867 180.652 26.8 182.127 26.8C183.042 26.8 183.854 26.5853 184.563 26.156C185.291 25.7267 185.851 25.1013 186.243 24.28H191.507C190.947 26.408 189.836 28.088 188.175 29.32C186.514 30.5333 184.516 31.14 182.183 31.14C180.279 31.14 178.571 30.72 177.059 29.88C175.566 29.0213 174.399 27.836 173.559 26.324C172.719 24.812 172.299 23.0853 172.299 21.144ZM206.675 27.528H199.339L198.163 31H193.151L200.263 11.344H205.807L212.919 31H207.851L206.675 27.528ZM205.443 23.832L203.007 16.636L200.599 23.832H205.443Z" fill="white"/>
</svg>
