<svg width="229" height="48" viewBox="0 0 229 48" fill="none" xmlns="http://www.w3.org/2000/svg">
<path d="M51.2304 16.0364C49.066 13.8674 46.4965 12.1467 43.6687 10.9729C40.8408 9.79899 37.8099 9.19482 34.749 9.19482C31.6882 9.19482 28.6573 9.79899 25.8294 10.9729C23.0016 12.1467 20.4321 13.8674 18.2677 16.0364L34.749 32.5533L51.2304 16.0364Z" fill="#FFD200"/>
<path d="M34.7697 32.5771C36.9341 34.7461 39.5035 36.4667 42.3314 37.6406C45.1592 38.8144 48.1901 39.4186 51.251 39.4186C54.3118 39.4186 57.3431 38.8144 60.1708 37.6406C62.9986 36.4667 65.5683 34.7461 67.7325 32.5771L51.251 16.0601L34.7697 32.5771Z" fill="#06E07F"/>
<path d="M34.729 32.5735C32.5647 34.7425 29.9951 36.4631 27.1673 37.6369C24.3394 38.8108 21.3086 39.415 18.2477 39.415C15.1868 39.415 12.156 38.8108 9.32808 37.6369C6.50026 36.4631 3.93076 34.7425 1.7664 32.5735L18.2477 16.0565L34.729 32.5735Z" fill="#E3073C"/>
<path d="M51.2711 16.04C53.4352 13.871 56.0049 12.1504 58.8327 10.9766C61.6604 9.80271 64.6917 9.19853 67.7522 9.19853C70.8135 9.19853 73.844 9.80271 76.6718 10.9766C79.4995 12.1504 82.0692 13.871 84.2335 16.04L67.7522 32.557L51.2711 16.04Z" fill="#1F84EF"/>
<path d="M123.104 19.768C123.104 21.0693 122.805 22.264 122.208 23.352C121.611 24.4187 120.693 25.2827 119.456 25.944C118.219 26.6053 116.683 26.936 114.848 26.936H111.456V35H105.984V12.536H114.848C116.64 12.536 118.155 12.8453 119.392 13.464C120.629 14.0827 121.557 14.936 122.176 16.024C122.795 17.112 123.104 18.36 123.104 19.768ZM114.432 22.584C115.477 22.584 116.256 22.3387 116.768 21.848C117.28 21.3573 117.536 20.664 117.536 19.768C117.536 18.872 117.28 18.1787 116.768 17.688C116.256 17.1973 115.477 16.952 114.432 16.952H111.456V22.584H114.432ZM142.113 12.536V16.92H136.161V35H130.689V16.92H124.737V12.536H142.113ZM147.419 35.256C146.459 35.256 145.67 34.9787 145.051 34.424C144.454 33.848 144.155 33.144 144.155 32.312C144.155 31.4587 144.454 30.744 145.051 30.168C145.67 29.592 146.459 29.304 147.419 29.304C148.358 29.304 149.126 29.592 149.723 30.168C150.342 30.744 150.651 31.4587 150.651 32.312C150.651 33.144 150.342 33.848 149.723 34.424C149.126 34.9787 148.358 35.256 147.419 35.256ZM173.696 35L166.144 25.08V35H160.672V12.536H166.144V22.392L173.632 12.536H180.064L171.36 23.544L180.384 35H173.696ZM182.056 23.736C182.056 21.5173 182.536 19.544 183.496 17.816C184.456 16.0667 185.789 14.712 187.496 13.752C189.224 12.7707 191.176 12.28 193.352 12.28C196.019 12.28 198.301 12.984 200.2 14.392C202.099 15.8 203.368 17.72 204.008 20.152H197.992C197.544 19.2133 196.904 18.4987 196.072 18.008C195.261 17.5173 194.333 17.272 193.288 17.272C191.603 17.272 190.237 17.8587 189.192 19.032C188.147 20.2053 187.624 21.7733 187.624 23.736C187.624 25.6987 188.147 27.2667 189.192 28.44C190.237 29.6133 191.603 30.2 193.288 30.2C194.333 30.2 195.261 29.9547 196.072 29.464C196.904 28.9733 197.544 28.2587 197.992 27.32H204.008C203.368 29.752 202.099 31.672 200.2 33.08C198.301 34.4667 196.019 35.16 193.352 35.16C191.176 35.16 189.224 34.68 187.496 33.72C185.789 32.7387 184.456 31.384 183.496 29.656C182.536 27.928 182.056 25.9547 182.056 23.736ZM221.343 31.032H212.959L211.615 35H205.887L214.015 12.536H220.351L228.479 35H222.687L221.343 31.032ZM219.935 26.808L217.151 18.584L214.399 26.808H219.935Z" fill="black"/>
</svg>
